<svg fill="none" height="24" viewBox="0 0 81 24" width="81" xmlns="http://www.w3.org/2000/svg"><path clip-rule="evenodd" d="m23.6584 0h4.5643v23.6615h-4.5643zm-1.9499 16.698h-16.83835c.77738 2.2645 3.00957 3.6174 6.12065 3.6174h.6087c2.8067 0 4.4301-.8786 5.0717-1.9944h4.8687c-.6759 3.0759-3.8212 5.679-10.2448 5.679-6.79649 0-11.29368654-3.3459-11.29368654-9.0592-.10146346-5.20608 5.27458654-8.5863 11.29368654-8.51769 6.525 0 10.4134 3.65019 10.4134 8.61909zm-4.7672-3.4473c-.1358-1.893-2.2994-3.1431-5.3418-3.1431h-.6087c-3.1439 0-5.20749 1.1487-6.01919 3.1431zm18.3347-13.2507h-4.9702v4.76602h4.9702zm-.2029 6.76044h-4.5643v16.90106h4.5643zm13.0335-.33879c6.0863 0 9.9404 2.60304 10.482 6.25325h-4.8016c-.5744-1.623-2.5351-2.4002-5.3417-2.4002h-.6088c-4.1257 0-6.3235 2.2645-6.3235 4.9346 0 2.6702 2.1978 4.9346 6.3235 4.9346h.6088c2.7723 0 4.9702-.98 5.3089-2.4001h4.8016c-.5417 3.3802-3.8541 6.2532-10.4477 6.2532-7.1338 0-11.2251-3.7188-11.2251-8.7892-.0015-5.0002 4.2913-8.78615 11.2236-8.78615zm27.4338 6.32185-7.8112.4729c-5.3074.3714-7.7082 2.1302-7.7082 5.3732 0 3.3802 2.5023 5.4089 7.8783 5.4089 3.787 0 6.3907-1.1829 7.7769-2.5687 0 .8458.1014 1.5886.2701 2.2316h4.5643c-.2701-.9473-.4059-2.1973-.4059-3.7189v-6.8618c0-4.36032-3.5168-6.65905-9.7717-6.65905-5.4775 0-9.4003 2.40017-9.6032 5.57755h4.633c.2029-1.0472 1.9949-1.893 4.5643-1.893h.6088c3.1454 0 5.0045.8458 5.0045 2.4345zm0 4.1246c0 2.1973-2.5694 3.4474-6.4578 3.4474h-.6088c-2.7052 0-3.8213-.7772-3.8213-1.8587 0-.9458.8804-1.5544 3.2125-1.6901l7.6754-.4729z" fill="#000" fill-rule="evenodd"/></svg>